<?xml version="1.0" standalone="no"?><!DOCTYPE svg PUBLIC "-//W3C//DTD SVG 1.1//EN" "http://www.w3.org/Graphics/SVG/1.1/DTD/svg11.dtd"><svg t="1586015026021" class="icon" viewBox="0 0 1024 1024" version="1.1" xmlns="http://www.w3.org/2000/svg" p-id="5108" xmlns:xlink="http://www.w3.org/1999/xlink" width="200" height="200"><defs><style type="text/css"></style></defs><path d="M472.9088 198.38976h-215.04c-22.58432 0-40.96 18.37568-40.96 40.96v215.04c0 22.58432 18.37568 40.96 40.96 40.96h215.04c22.58432 0 40.96-18.37568 40.96-40.96v-215.04c0-22.58432-18.37568-40.96-40.96-40.96z m-0.06144 256H257.8688v-215.04h215.04l-0.06144 215.04z m0.06144 20.48v-20.48 20.48zM472.9088 528.65024h-215.04c-22.58432 0-40.96 18.37568-40.96 40.96v215.04c0 22.58432 18.37568 40.96 40.96 40.96h215.04c22.58432 0 40.96-18.37568 40.96-40.96v-215.04c0-22.58432-18.37568-40.96-40.96-40.96z m-0.06144 256H257.8688v-215.04h215.04l-0.06144 215.04z m0.06144 20.48v-20.48 20.48zM581.8112 323.25632h204.8a20.48 20.48 0 0 0 0-40.96h-204.8a20.48 20.48 0 0 0 0 40.96zM786.6112 368.3328h-204.8a20.48 20.48 0 0 0 0 40.96h204.8a20.48 20.48 0 0 0 0-40.96zM786.6112 613.62688h-204.8a20.48 20.48 0 0 0 0 40.96h204.8a20.48 20.48 0 0 0 0-40.96zM786.6112 699.66848h-204.8a20.48 20.48 0 0 0 0 40.96h204.8a20.48 20.48 0 0 0 0-40.96z"  p-id="5109"></path><path d="M426.93632 288.29184L340.0448 375.18336l-36.20352-36.20352a20.48 20.48 0 0 0-28.96384 28.96384l50.68288 50.688a20.49024 20.49024 0 0 0 28.96896 0.00512l101.37088-101.37088a20.48 20.48 0 0 0-28.96384-28.97408zM426.93632 611.95776l-86.89152 86.89152-36.20352-36.20352a20.48 20.48 0 0 0-28.96384 28.96384l50.68288 50.68288c3.99872 3.99872 9.2416 5.99552 14.48448 5.99552s10.48064-2.00192 14.48448-5.99552l101.37088-101.37088a20.48 20.48 0 0 0-28.96384-28.96384z"  p-id="5110"></path></svg>