<?xml version="1.0" standalone="no"?><!DOCTYPE svg PUBLIC "-//W3C//DTD SVG 1.1//EN" "http://www.w3.org/Graphics/SVG/1.1/DTD/svg11.dtd"><svg t="1586015072147" class="icon" viewBox="0 0 1027 1024" version="1.1" xmlns="http://www.w3.org/2000/svg" p-id="6049" xmlns:xlink="http://www.w3.org/1999/xlink" width="200.5859375" height="200"><defs><style type="text/css"></style></defs><path d="M959.390746 959.617445H64.382555V64.609254h511.433252V0.226699H0v1023.773301h1023.773301V448.184193h-64.382555z"  p-id="6050"></path><path d="M303.776843 579.669692l-9.067965 31.737879-38.992252 156.875803 154.155413-41.712641h2.72039l35.365065-9.974762 22.669914-21.763117 527.75559-528.662387c38.085455-38.085455 38.085455-98.840824 0-136.926278-38.992251-38.992251-99.74762-38.992251-137.833075 0L332.794333 556.999779l-29.01749 22.669913zM902.262564 73.677219c12.695152-12.695152 31.737879-12.695152 44.43303 0s12.695152 31.737879 0 45.339828l-44.43303 44.43303-45.339828-44.43303 45.339828-45.339828zM361.811822 626.823113l2.72039-12.695152 447.957494-447.957494 44.43303 45.339827-444.330307 444.330308-16.322338 3.627186h-6.347576l-40.805845 12.695152 12.695152-45.339827z"  p-id="6051"></path></svg>