<?xml version="1.0" standalone="no"?><!DOCTYPE svg PUBLIC "-//W3C//DTD SVG 1.1//EN" "http://www.w3.org/Graphics/SVG/1.1/DTD/svg11.dtd"><svg t="1586014844284" class="icon" viewBox="0 0 1024 1024" version="1.1" xmlns="http://www.w3.org/2000/svg" p-id="4122" xmlns:xlink="http://www.w3.org/1999/xlink" width="200" height="200"><defs><style type="text/css"></style></defs><path d="M704.3 685.6c-10.1 0-20.2-2.7-29.4-8.4-26.4-16.3-34.6-50.9-18.4-77.3 16.1-26.1 24.6-56.2 24.6-87 0-33.3-9.8-65.4-28.3-92.9-17.4-25.7-10.6-60.6 15.1-78s60.6-10.6 78 15.1c31.1 46.1 47.6 100 47.6 155.8 0 51.7-14.3 102.2-41.3 146a56.392 56.392 0 0 1-47.9 26.7z"  p-id="4123"></path><path d="M815.1 795.6c-13.6 0-27.2-4.9-38-14.8-22.9-21-24.4-56.5-3.4-79.4 47.4-51.7 73.5-118.8 73.5-188.9 0-77.2-30.8-149.1-86.7-202.4-22.5-21.4-23.3-57-1.9-79.4 21.4-22.5 57-23.3 79.4-1.9 78.4 74.7 121.6 175.5 121.6 283.7 0 98.4-36.6 192.5-103.1 264.9-11.1 12.1-26.2 18.2-41.4 18.2z"  p-id="4124"></path><path d="M454.3 927.2h-223c-92.9 0-168.2-75.3-168.2-168.2V269.4c0-92.9 75.3-168.2 168.2-168.2h223c92.9 0 168.2 75.3 168.2 168.2V759c0 92.9-75.3 168.2-168.2 168.2z m-10.8-713.7H242.1c-36.8 0-66.7 29.9-66.7 66.7v468c0 36.8 29.9 66.7 66.7 66.7h201.3c36.8 0 66.7-29.9 66.7-66.7v-468c0.1-36.8-29.8-66.7-66.6-66.7z"  p-id="4125"></path><path d="M510 715.7H173.9c-28.6 0-52-23.4-52-52v-8.4c0-28.6 23.4-52 52-52H510c28.6 0 52 23.4 52 52v8.4c0 28.6-23.4 52-52 52z" p-id="4126"></path></svg>