<?xml version="1.0" standalone="no"?><!DOCTYPE svg PUBLIC "-//W3C//DTD SVG 1.1//EN" "http://www.w3.org/Graphics/SVG/1.1/DTD/svg11.dtd"><svg t="1586014898449" class="icon" viewBox="0 0 1024 1024" version="1.1" xmlns="http://www.w3.org/2000/svg" p-id="4322" xmlns:xlink="http://www.w3.org/1999/xlink" width="200" height="200"><defs><style type="text/css"></style></defs><path d="M170.666667 170.666667v639.914666h341.290666v85.333334h-384a42.666667 42.666667 0 0 1-42.624-42.666667V128a42.666667 42.666667 0 0 1 42.666667-42.666667h682.581333a42.666667 42.666667 0 0 1 42.666667 42.666667v405.290667h-85.333333v-362.666667H170.666667z m85.333333 170.666666V256h426.624v85.333333h-426.666667z m0 170.624v-85.333333h277.290667v85.333333h-277.333334z"  p-id="4323"></path><path d="M956.288 657.664L896 597.333333l-119.125333 119.168L657.664 597.333333 597.333333 657.664l119.168 119.168L597.333333 895.957333l60.330667 60.330667 119.168-119.168 119.125333 119.168L956.288 896l-119.168-119.125333z"  p-id="4324"></path></svg>